<?xml version="1.0" encoding="UTF-8" standalone="no"?>
<!DOCTYPE svg PUBLIC "-//W3C//DTD SVG 1.1//EN" "http://www.w3.org/Graphics/SVG/1.1/DTD/svg11.dtd">
<svg width="100%" height="100%" viewBox="0 0 1564 255" version="1.1" xmlns="http://www.w3.org/2000/svg" xmlns:xlink="http://www.w3.org/1999/xlink" xml:space="preserve" xmlns:serif="http://www.serif.com/" style="fill-rule:evenodd;clip-rule:evenodd;stroke-miterlimit:2;">
    <g transform="matrix(1,0,0,1,-189.048,-4676.45)">
        <g id="Artboard10" transform="matrix(0.781761,0,0,0.127431,-16241.1,4676.45)">
            <rect x="21016.8" y="0" width="2000" height="2000" style="fill:none;"/>
            <g transform="matrix(2.63355,0,0,16.1562,19278.1,-77494.4)">
                <path d="M704.511,4917.97C726.678,4917.97 736.345,4905.47 741.345,4895.97L727.011,4888.64C723.511,4896.3 717.845,4902.97 704.845,4902.97C691.011,4902.97 680.845,4893.8 680.345,4879.3L743.511,4879.3L743.511,4872.8C743.511,4847.8 727.511,4831.14 703.845,4831.14C679.678,4831.14 662.845,4847.97 662.845,4873.64L662.845,4875.64C662.845,4901.14 679.511,4917.97 704.511,4917.97ZM680.511,4866.14C682.178,4853.8 690.678,4846.3 703.678,4846.3C716.511,4846.3 725.178,4853.8 726.178,4866.14L680.511,4866.14Z" style="fill-rule:nonzero;"/>
                <path d="M776.011,4915.64L793.178,4915.64L793.178,4847.97L816.845,4847.97L816.845,4833.47L793.178,4833.47L793.178,4818.3C793.178,4814.97 794.845,4813.3 798.011,4813.3L813.678,4813.3L813.678,4798.97L792.511,4798.97C782.345,4798.97 776.011,4805.3 776.011,4815.47L776.011,4833.47L753.011,4833.47L753.011,4847.97L776.011,4847.97L776.011,4915.64Z" style="fill-rule:nonzero;"/>
                <path d="M863.011,4915.64L885.678,4915.64L885.678,4901.14L868.511,4901.14C865.345,4901.14 863.845,4899.47 863.845,4896.14L863.845,4847.97L888.345,4847.97L888.345,4833.47L863.845,4833.47L863.845,4806.3L846.678,4806.3L846.678,4833.47L824.011,4833.47L824.011,4847.97L846.678,4847.97L846.678,4899.14C846.678,4909.3 852.845,4915.64 863.011,4915.64Z" style="fill-rule:nonzero;"/>
                <path d="M908.511,4915.64L925.678,4915.64L925.678,4874.14C925.678,4856.47 935.011,4846.8 949.178,4846.8C961.678,4846.8 969.178,4853.3 969.178,4867.64L969.178,4915.64L986.345,4915.64L986.345,4866.3C986.345,4845.14 972.845,4832.14 954.178,4832.14C938.511,4832.14 931.511,4838.97 928.345,4845.14L925.678,4845.14L925.678,4798.97L908.511,4798.97L908.511,4915.64Z" style="fill-rule:nonzero;"/>
                <path d="M1048.68,4917.97C1070.85,4917.97 1080.51,4905.47 1085.51,4895.97L1071.18,4888.64C1067.68,4896.3 1062.01,4902.97 1049.01,4902.97C1035.18,4902.97 1025.01,4893.8 1024.51,4879.3L1087.68,4879.3L1087.68,4872.8C1087.68,4847.8 1071.68,4831.14 1048.01,4831.14C1023.85,4831.14 1007.01,4847.97 1007.01,4873.64L1007.01,4875.64C1007.01,4901.14 1023.68,4917.97 1048.68,4917.97ZM1024.68,4866.14C1026.35,4853.8 1034.85,4846.3 1047.85,4846.3C1060.68,4846.3 1069.35,4853.8 1070.35,4866.14L1024.68,4866.14Z" style="fill-rule:nonzero;"/>
                <path d="M1117.01,4822.3C1123.68,4822.3 1128.85,4817.64 1128.85,4810.64C1128.85,4803.64 1123.68,4798.97 1117.01,4798.97C1110.18,4798.97 1105.18,4803.64 1105.18,4810.64C1105.18,4817.64 1110.18,4822.3 1117.01,4822.3ZM1108.35,4915.64L1125.51,4915.64L1125.51,4833.47L1108.35,4833.47L1108.35,4915.64Z" style="fill-rule:nonzero;"/>
                <path d="M1176.51,4917.97C1193.51,4917.97 1199.51,4909.3 1202.01,4903.97L1204.68,4903.97L1204.68,4904.47C1204.68,4911.3 1210.01,4915.64 1217.68,4915.64L1230.51,4915.64L1230.51,4901.3L1223.51,4901.3C1220.51,4901.3 1218.85,4899.64 1218.85,4896.3L1218.85,4862.47C1218.85,4842.47 1205.85,4831.14 1184.51,4831.14C1163.51,4831.14 1152.68,4842.3 1148.68,4855.3L1164.68,4860.47C1166.68,4851.64 1172.51,4845.47 1184.35,4845.47C1196.35,4845.47 1202.01,4851.8 1202.01,4861.3L1202.01,4866.64L1177.01,4866.64C1159.01,4866.64 1145.68,4875.3 1145.68,4891.97C1145.68,4908.64 1159.01,4917.97 1176.51,4917.97ZM1179.01,4903.8C1168.85,4903.8 1162.85,4898.97 1162.85,4891.47C1162.85,4883.97 1168.85,4879.97 1178.01,4879.97L1202.01,4879.97L1202.01,4881.64C1202.01,4895.47 1192.68,4903.8 1179.01,4903.8Z" style="fill-rule:nonzero;"/>
                <path d="M1257.51,4917.97C1265.18,4917.97 1271.18,4912.3 1271.18,4904.3C1271.18,4896.3 1265.18,4890.8 1257.51,4890.8C1249.68,4890.8 1243.85,4896.3 1243.85,4904.3C1243.85,4912.3 1249.68,4917.97 1257.51,4917.97Z" style="fill:rgb(56,144,117);fill-rule:nonzero;stroke:rgb(56,144,117);stroke-width:0.27px;"/>
                <path d="M1301.85,4822.3C1308.51,4822.3 1313.68,4817.64 1313.68,4810.64C1313.68,4803.64 1308.51,4798.97 1301.85,4798.97C1295.01,4798.97 1290.01,4803.64 1290.01,4810.64C1290.01,4817.64 1295.01,4822.3 1301.85,4822.3ZM1293.18,4915.64L1310.35,4915.64L1310.35,4833.47L1293.18,4833.47L1293.18,4915.64Z" style="fill-rule:nonzero;"/>
                <g transform="matrix(0.691456,0,0,0.68161,47.6858,1605.02)">
                    <path d="M1546.48,4685.9C1551.43,4685.9 1556.09,4687.83 1559.21,4691.19C1562.06,4694.25 1563.6,4698.52 1563.6,4703.01C1563.6,4707.49 1562.08,4711.81 1559.26,4714.86C1556.13,4718.25 1551.45,4720.13 1546.48,4720.13C1541.49,4720.13 1536.75,4718.28 1533.62,4714.85C1530.84,4711.81 1529.37,4707.46 1529.37,4703.01C1529.37,4698.24 1531.01,4693.69 1534.17,4690.59C1537.26,4687.55 1541.81,4685.9 1546.48,4685.9Z" style="fill:rgb(56,144,117);stroke:rgb(56,144,117);stroke-width:0.39px;stroke-linecap:round;stroke-linejoin:round;stroke-miterlimit:1.5;"/>
                </g>
                <g transform="matrix(0.691456,0,0,0.68161,232.519,1605.02)">
                    <path d="M1546.48,4685.9C1551.43,4685.9 1556.09,4687.83 1559.21,4691.19C1562.06,4694.25 1563.6,4698.52 1563.6,4703.01C1563.6,4707.49 1562.08,4711.81 1559.26,4714.86C1556.13,4718.25 1551.45,4720.13 1546.48,4720.13C1541.49,4720.13 1536.75,4718.28 1533.62,4714.85C1530.84,4711.81 1529.37,4707.46 1529.37,4703.01C1529.37,4698.24 1531.01,4693.69 1534.17,4690.59C1537.26,4687.55 1541.81,4685.9 1546.48,4685.9Z" style="fill:rgb(56,144,117);stroke:rgb(56,144,117);stroke-width:0.39px;stroke-linecap:round;stroke-linejoin:round;stroke-miterlimit:1.5;"/>
                </g>
                <path d="M1374.35,4917.97C1399.01,4917.97 1417.01,4901.97 1417.01,4875.8L1417.01,4873.3C1417.01,4847.3 1399.01,4831.14 1374.35,4831.14C1349.68,4831.14 1331.85,4847.3 1331.85,4873.3L1331.85,4875.8C1331.85,4901.97 1349.68,4917.97 1374.35,4917.97ZM1374.35,4902.64C1359.35,4902.64 1349.01,4892.47 1349.01,4875.3L1349.01,4873.8C1349.01,4856.8 1359.35,4846.47 1374.35,4846.47C1389.51,4846.47 1399.85,4856.8 1399.85,4873.8L1399.85,4875.3C1399.85,4892.47 1389.35,4902.64 1374.35,4902.64Z" style="fill-rule:nonzero;"/>
            </g>
        </g>
    </g>
</svg>
